<svg xmlns="http://www.w3.org/2000/svg" viewBox="0 0 64 64">
  <rect width="64" height="64" rx="14" fill="#121620"/>
  <path d="M14 10h36a6 6 0 0 1 6 6v36a6 6 0 0 1-6 6H14a6 6 0 0 1-6-6V16a6 6 0 0 1 6-6Z" fill="#182230"/>
  <path d="M17 15h18" stroke="#ffcd52" stroke-width="4" stroke-linecap="round"/>
  <circle cx="32" cy="34" r="18" fill="#1a1c24"/>
  <path d="M15 34a17 17 0 0 1 34 0H15Z" fill="#e43741"/>
  <path d="M49 34a17 17 0 0 1-34 0h34Z" fill="#f6f8fc"/>
  <path d="M15 34h34" stroke="#1a1c24" stroke-width="5"/>
  <circle cx="32" cy="34" r="7" fill="#f6f8fc" stroke="#1a1c24" stroke-width="4"/>
</svg>
